<svg id="visual" viewBox="0 0 900 600" width="900" height="600" xmlns="http://www.w3.org/2000/svg" xmlns:xlink="http://www.w3.org/1999/xlink" version="1.1"><rect x="0" y="0" width="900" height="600" fill="#002233"></rect><path d="M0 496L21.5 477.3C43 458.7 86 421.3 128.8 402.5C171.7 383.7 214.3 383.3 257.2 389C300 394.7 343 406.3 385.8 414.2C428.7 422 471.3 426 514.2 427C557 428 600 426 642.8 440.8C685.7 455.7 728.3 487.3 771.2 494.2C814 501 857 483 878.5 474L900 465L900 601L878.5 601C857 601 814 601 771.2 601C728.3 601 685.7 601 642.8 601C600 601 557 601 514.2 601C471.3 601 428.7 601 385.8 601C343 601 300 601 257.2 601C214.3 601 171.7 601 128.8 601C86 601 43 601 21.5 601L0 601Z" fill="#0066FF" stroke-linecap="round" stroke-linejoin="miter"></path></svg>